<?xml version="1.0" encoding="UTF-8"?>
<!-- Generated by Pixelmator Pro 3.7.1 -->
<svg width="500" height="500" viewBox="0 0 500 500" xmlns="http://www.w3.org/2000/svg">
    <g id="g1">
        <g id="g2">
            <path id="path7" fill="none" stroke="#1b1b1f" stroke-width="38.37608" stroke-linecap="round" stroke-linejoin="round" d="M 287.25647 250.601089 C 287.25647 208.212036 252.893356 173.848938 210.504318 173.848938 C 168.11528 173.848938 133.752167 208.212036 133.752167 250.601089 C 133.752167 335.379181 202.478394 404.105408 287.25647 404.105408 C 372.034576 404.105408 440.760803 335.379181 440.760803 250.601089 C 440.760803 182.483551 411.019348 121.081818 364.008636 79.059998"/>
            <path id="path8" fill="none" stroke="#6566f5" stroke-width="38.37608" stroke-linecap="round" stroke-linejoin="round" d="M 210.504318 250.601089 C 210.504318 292.990112 244.867432 327.353241 287.25647 327.353241 C 329.645508 327.353241 364.008636 292.990112 364.008636 250.601089 C 364.008636 165.822998 295.28241 97.096771 210.504318 97.096771 C 125.726219 97.096771 57 165.822998 57 250.601089 C 57 319.29425 87.125221 381.079742 134.903442 423.293457"/>
        </g>
    </g>
</svg>
